<?xml version="1.0" encoding="UTF-8"?>
<svg width="70px" height="28px" viewBox="0 0 70 28" version="1.1" xmlns="http://www.w3.org/2000/svg" xmlns:xlink="http://www.w3.org/1999/xlink">
    <!-- Generator: Sketch 49.1 (51147) - http://www.bohemiancoding.com/sketch -->
    <title>ZJ logo</title>
    <desc>Created with Sketch.</desc>
    <defs>
        <polygon id="path-1" points="0.0005 0.0002 69.743 0.0002 69.743 27.482 0.0005 27.482"></polygon>
    </defs>
    <g id="Handoff-3-13" stroke="none" stroke-width="1" fill="none" fill-rule="evenodd">
        <g id="Home-3-13" transform="translate(-50.000000, -6634.000000)">
            <g id="Footer-full-Copy" transform="translate(-1.000000, 6353.000000)">
                <g id="Contact-bar" transform="translate(0.000000, 201.000000)">
                    <g id="ZJ-logo" transform="translate(51.000000, 80.000000)">
                        <mask id="mask-2" fill="white">
                            <use xlink:href="#path-1"></use>
                        </mask>
                        <g id="Clip-2"></g>
                        <path d="M68.4385,6.8682 C68.4385,6.8722 68.4365,6.8772 68.4315,6.8802 L68.4165,6.9062 C68.4115,6.9112 68.4055,6.9202 68.4055,6.9252 C68.2775,7.1612 68.1285,7.4292 67.9805,7.7032 L67.8885,7.8772 C67.8825,7.8772 67.8825,7.8772 67.8825,7.8812 C67.8675,7.9142 67.8505,7.9452 67.8335,7.9792 C67.7935,8.0482 67.7595,8.1132 67.7215,8.1802 C67.5585,8.4252 67.0185,9.0932 66.0765,9.0932 L47.8825,9.0932 C47.5295,9.0932 47.2455,9.3812 47.2455,9.7332 C47.2455,10.0912 47.5295,10.3782 47.8825,10.3782 L65.9205,10.3782 C66.1175,10.3782 66.2835,10.5372 66.2835,10.7392 C66.2835,10.7872 66.2735,10.8312 66.2555,10.8782 L65.9795,11.3892 L65.7095,11.8702 C65.7095,11.8742 65.7095,11.8802 65.7035,11.8822 C65.6855,11.9192 65.6685,11.9522 65.6515,11.9892 L65.5405,12.1892 C65.3725,12.4362 64.8365,13.0972 63.8985,13.1022 L47.0405,13.1022 L46.2515,13.1022 C45.8965,13.1022 45.6115,13.3892 45.6115,13.7442 C45.6115,14.0962 45.8965,14.3832 46.2515,14.3832 L63.7355,14.3832 C63.9375,14.3832 64.1015,14.5412 64.1015,14.7482 C64.1015,14.7972 64.0865,14.8372 64.0695,14.8782 L64.0695,14.8892 C64.0695,14.9002 64.0565,14.9122 64.0485,14.9192 C64.0435,14.9292 64.0405,14.9382 64.0395,14.9442 L63.6905,15.5822 C63.6415,15.6812 63.5895,15.7762 63.5345,15.8702 C63.5345,15.8722 63.5295,15.8822 63.5235,15.8862 C63.5025,15.9222 63.4815,15.9602 63.4625,15.9932 L63.3555,16.1942 C63.1905,16.4412 62.6515,17.1082 61.7115,17.1082 L41.1015,17.1082 C39.1965,17.1082 38.3645,15.6422 38.3335,15.5822 L37.9245,14.8342 C37.9245,14.8342 37.2795,13.6492 37.0935,13.3002 C35.8275,10.9802 34.5155,8.5682 34.4395,8.4322 C34.5695,8.1982 35.7455,6.0372 35.7455,6.0372 C35.7485,6.0272 36.4275,4.8252 37.7525,3.6492 C39.5215,2.0782 41.5635,1.2812 43.8275,1.2812 L49.5805,1.2812 C51.4935,1.2812 52.3195,2.7472 52.3555,2.8062 C52.3555,2.8052 52.7625,3.5552 52.7625,3.5552 C52.7625,3.5552 53.4095,4.7442 53.5925,5.0862 L44.9045,5.0862 C44.5545,5.0862 44.2645,5.3752 44.2645,5.7272 C44.2645,6.0812 44.5545,6.3682 44.9045,6.3682 L68.0995,6.3682 C68.2995,6.3682 68.4625,6.5292 68.4625,6.7302 C68.4625,6.7802 68.4575,6.8232 68.4385,6.8682 Z M61.8865,18.8892 C61.8815,18.9002 61.8765,18.9162 61.8685,18.9292 C61.8605,18.9362 61.8545,18.9532 61.8495,18.9652 C61.6915,19.2432 61.5155,19.5692 61.3395,19.8922 C61.3195,19.9322 61.3005,19.9642 61.2845,20.0022 C61.2475,20.0672 61.2115,20.1362 61.1705,20.1992 C61.0115,20.4412 60.4665,21.1152 59.5255,21.1152 L27.5335,21.1152 C27.6305,20.9392 28.0215,20.2222 28.5665,19.2222 C30.2435,16.1382 33.3885,10.3692 33.7075,9.7752 L36.3825,14.6752 L36.7645,15.3702 C37.0085,15.8352 37.2065,16.1942 37.2065,16.1942 C37.2575,16.2832 38.4265,18.3882 41.1015,18.3882 L61.5515,18.3882 C61.7475,18.3882 61.9145,18.5542 61.9145,18.7582 C61.9145,18.8022 61.9055,18.8482 61.8865,18.8892 Z M40.8265,23.9292 L40.4165,24.6702 C40.3785,24.7362 39.5565,26.2002 37.6425,26.2002 L24.7615,26.2002 C25.1115,25.5552 25.5845,24.6912 25.9825,23.9532 C26.4285,23.1452 26.7915,22.4722 26.8385,22.3982 L41.6595,22.3982 C41.4715,22.7392 40.8265,23.9292 40.8265,23.9292 Z M10.1925,21.1152 C10.1615,21.0612 10.0745,20.9032 9.9625,20.6872 C9.9365,20.6442 9.9095,20.5972 9.8785,20.5462 C9.8725,20.5222 9.8555,20.4942 9.8355,20.4672 C9.5465,19.9322 9.1615,19.2202 8.9865,18.9002 L8.7065,18.3882 L24.5895,18.3882 C25.2085,19.5182 25.7425,20.4982 26.0735,21.1152 L10.1925,21.1152 Z M6.5245,14.3832 L22.4105,14.3832 C22.8905,15.2642 23.3985,16.2012 23.8935,17.1082 L8.0055,17.1082 L6.5245,14.3832 Z M4.8935,11.3892 L4.5325,10.7282 L4.4875,10.6392 L4.3405,10.3782 L18.2215,10.3782 C20.1305,10.3782 20.9645,11.8372 20.9915,11.9042 L21.4045,12.6482 C21.4045,12.6482 21.5065,12.8462 21.6495,13.1022 L5.8245,13.1022 L4.8935,11.3892 Z M3.6085,9.0362 C3.5005,8.8292 3.3495,8.5412 3.1755,8.2332 C3.1265,8.1512 3.0805,8.0592 3.0305,7.9702 C2.6845,7.3362 2.3205,6.6682 2.1595,6.3682 L23.6965,6.3682 L29.3445,6.3682 C31.6065,6.3682 32.6215,7.8092 32.8785,8.2462 C32.8785,8.2492 32.9585,8.3922 32.9855,8.4322 C32.9225,8.5492 31.6655,10.8582 30.2555,13.4472 L29.8565,14.1702 C29.1865,15.3952 28.5045,16.6532 27.9185,17.7372 L26.8085,19.7752 C26.0105,18.3132 24.8055,16.1002 23.6965,14.0702 C23.5205,13.7382 23.3385,13.4192 23.1705,13.1022 L22.2125,11.4512 C22.1515,11.3482 22.1215,11.2862 22.1215,11.2862 C22.1145,11.2732 22.0775,11.2082 22.0085,11.1092 C21.8955,10.9332 21.6915,10.6632 21.3935,10.3782 C20.9915,9.9822 20.4175,9.5622 19.6515,9.3102 C19.2275,9.1812 18.7535,9.0932 18.2215,9.0932 L3.6435,9.0932 L3.6085,9.0362 Z M68.0995,5.0862 L55.0585,5.0862 C54.9265,4.8452 53.4855,2.1922 53.4855,2.1922 C53.4315,2.1072 52.2585,0.0002 49.5805,0.0002 L43.8275,0.0002 C42.4915,0.0002 41.1955,0.2512 39.9745,0.7572 C38.9185,1.1962 37.9335,1.8002 37.0385,2.5732 L36.8825,2.7072 C35.3915,4.0412 34.6495,5.3692 34.6245,5.4292 C34.6245,5.4292 34.0125,6.5432 33.6785,7.1532 C33.0645,6.3352 31.7305,5.0862 29.3445,5.0862 L0.0005,5.0862 L2.5375,9.7422 L4.7155,13.7442 L5.0695,14.3832 L6.5485,17.1082 L6.8935,17.7372 L9.4275,22.3982 L17.1285,22.3982 L25.3775,22.3982 C25.3655,22.4122 25.3525,22.4382 25.3435,22.4632 C25.3325,22.4722 25.3285,22.4882 25.3195,22.5032 C25.3115,22.5132 25.3095,22.5192 25.3075,22.5272 C25.2575,22.6102 25.1985,22.7222 25.1335,22.8492 C24.9725,23.1302 24.7685,23.5202 24.5315,23.9532 C24.1535,24.6442 23.7065,25.4552 23.3045,26.2002 C23.0475,26.6782 22.8045,27.1172 22.6075,27.4822 L37.6425,27.4822 C40.3235,27.4822 41.4945,25.3772 41.5425,25.2812 C41.5425,25.2812 42.9865,22.6382 43.1205,22.3982 L59.6615,22.3982 C61.1565,22.3982 61.9945,21.3052 62.2205,20.9532 C62.2675,20.8862 62.2875,20.8392 62.2875,20.8392 L62.5265,20.4112 L62.6905,20.1142 C62.7025,20.0942 62.7115,20.0782 62.7165,20.0572 C62.7315,20.0342 62.7445,20.0142 62.7535,19.9882 C62.7655,19.9642 62.7765,19.9402 62.7855,19.9132 L62.7995,19.8922 L62.9605,19.6012 C62.9725,19.5802 62.9845,19.5602 62.9975,19.5402 C63.0055,19.5222 63.0165,19.4992 63.0285,19.4782 C63.1325,19.2602 63.1975,19.0102 63.1975,18.7582 C63.1975,18.5252 63.1465,18.3132 63.0675,18.1182 C63.8065,17.7712 64.2515,17.1852 64.4085,16.9432 C64.4495,16.8792 64.4725,16.8392 64.4725,16.8392 L64.7075,16.4072 L64.8705,16.1062 C64.8775,16.0872 64.8935,16.0702 64.9015,16.0542 C64.9175,16.0292 64.9295,16.0072 64.9395,15.9862 L64.9395,15.9822 C64.9495,15.9602 64.9585,15.9322 64.9695,15.9052 L64.9815,15.8862 L65.1435,15.5902 C65.1565,15.5752 65.1675,15.5562 65.1765,15.5382 C65.1895,15.5152 65.2005,15.4912 65.2095,15.4722 L65.2095,15.4682 C65.3135,15.2492 65.3755,15.0032 65.3755,14.7482 C65.3755,14.5202 65.3385,14.3052 65.2505,14.1122 C65.9905,13.7632 66.4275,13.1802 66.5865,12.9382 C66.6385,12.8672 66.6575,12.8342 66.6575,12.8342 L66.8895,12.3982 L67.0545,12.1002 C67.0655,12.0832 67.0745,12.0572 67.0855,12.0442 C67.1015,12.0222 67.1105,12.0002 67.1175,11.9792 L67.1235,11.9792 C67.1365,11.9552 67.1445,11.9262 67.1535,11.9042 L67.1665,11.8822 L67.3315,11.5832 C67.3415,11.5622 67.3525,11.5482 67.3585,11.5302 C67.3715,11.5112 67.3875,11.4862 67.3935,11.4602 C67.5015,11.2392 67.5615,10.9972 67.5615,10.7392 C67.5615,10.5122 67.5135,10.3022 67.4335,10.0982 C68.1735,9.7572 68.6115,9.1692 68.7725,8.9302 C68.8175,8.8652 68.8405,8.8202 68.8405,8.8202 L69.0785,8.3912 L69.2335,8.0932 C69.2515,8.0742 69.2605,8.0552 69.2735,8.0422 C69.2805,8.0162 69.2905,7.9952 69.2965,7.9722 L69.2965,7.9702 C69.3175,7.9452 69.3245,7.9212 69.3375,7.8942 L69.3455,7.8772 L69.5095,7.5752 C69.5205,7.5602 69.5315,7.5462 69.5445,7.5212 C69.5565,7.5022 69.5635,7.4812 69.5745,7.4572 L69.5785,7.4572 C69.6835,7.2362 69.7435,6.9932 69.7435,6.7302 C69.7435,5.8222 69.0035,5.0862 68.0995,5.0862 Z" id="Fill-1" fill="#FCF9F4" mask="url(#mask-2)"></path>
                    </g>
                </g>
            </g>
        </g>
    </g>
</svg>